<mxfile host="Electron" agent="Mozilla/5.0 (Windows NT 10.0; Win64; x64) AppleWebKit/537.36 (KHTML, like Gecko) draw.io/24.7.17 Chrome/128.0.6613.36 Electron/32.0.1 Safari/537.36" version="24.7.17">
  <diagram name="Страница — 1" id="CH6V-SqYsDREdSeNF4m0">
    <mxGraphModel dx="1040" dy="606" grid="1" gridSize="10" guides="1" tooltips="1" connect="1" arrows="1" fold="1" page="1" pageScale="1" pageWidth="827" pageHeight="1169" math="0" shadow="0">
      <root>
        <mxCell id="0" />
        <mxCell id="1" parent="0" />
        <mxCell id="4SHq5C0YuAlDdYXjMLst-1" value="&lt;font style=&quot;font-size: 12px;&quot; face=&quot;Times New Roman&quot;&gt;Начало&lt;/font&gt;" style="ellipse;whiteSpace=wrap;html=1;" parent="1" vertex="1">
          <mxGeometry x="320" y="40" width="200" height="40" as="geometry" />
        </mxCell>
        <mxCell id="4SHq5C0YuAlDdYXjMLst-3" value="" style="endArrow=classic;html=1;rounded=0;exitX=0.5;exitY=1;exitDx=0;exitDy=0;" parent="1" source="4SHq5C0YuAlDdYXjMLst-1" edge="1">
          <mxGeometry width="50" height="50" relative="1" as="geometry">
            <mxPoint x="370" y="170" as="sourcePoint" />
            <mxPoint x="420" y="120" as="targetPoint" />
          </mxGeometry>
        </mxCell>
        <mxCell id="4SHq5C0YuAlDdYXjMLst-4" value="&lt;font face=&quot;Times New Roman&quot;&gt;true&lt;/font&gt;" style="rhombus;whiteSpace=wrap;html=1;" parent="1" vertex="1">
          <mxGeometry x="320" y="120" width="200" height="40" as="geometry" />
        </mxCell>
        <mxCell id="4SHq5C0YuAlDdYXjMLst-5" value="" style="endArrow=classic;html=1;rounded=0;" parent="1" edge="1">
          <mxGeometry width="50" height="50" relative="1" as="geometry">
            <mxPoint x="420" y="160" as="sourcePoint" />
            <mxPoint x="420" y="200" as="targetPoint" />
          </mxGeometry>
        </mxCell>
        <mxCell id="4SHq5C0YuAlDdYXjMLst-6" value="&lt;font face=&quot;Times New Roman&quot;&gt;&quot;Введите число (или &#39;exit&#39; для выхода): &quot;&lt;/font&gt;" style="shape=document;whiteSpace=wrap;html=1;boundedLbl=1;" parent="1" vertex="1">
          <mxGeometry x="320" y="200" width="200" height="40" as="geometry" />
        </mxCell>
        <mxCell id="4SHq5C0YuAlDdYXjMLst-7" value="" style="endArrow=classic;html=1;rounded=0;exitX=0.502;exitY=0.849;exitDx=0;exitDy=0;exitPerimeter=0;" parent="1" source="4SHq5C0YuAlDdYXjMLst-6" edge="1">
          <mxGeometry width="50" height="50" relative="1" as="geometry">
            <mxPoint x="370" y="310" as="sourcePoint" />
            <mxPoint x="420" y="260" as="targetPoint" />
          </mxGeometry>
        </mxCell>
        <mxCell id="4SHq5C0YuAlDdYXjMLst-8" value="&lt;font face=&quot;Times New Roman&quot;&gt;string inputStr = Console.ReadLine();&lt;/font&gt;" style="rounded=0;whiteSpace=wrap;html=1;" parent="1" vertex="1">
          <mxGeometry x="320" y="260" width="200" height="20" as="geometry" />
        </mxCell>
        <mxCell id="4SHq5C0YuAlDdYXjMLst-9" value="" style="endArrow=classic;html=1;rounded=0;exitX=0.5;exitY=1;exitDx=0;exitDy=0;" parent="1" source="4SHq5C0YuAlDdYXjMLst-8" edge="1">
          <mxGeometry width="50" height="50" relative="1" as="geometry">
            <mxPoint x="370" y="350" as="sourcePoint" />
            <mxPoint x="420" y="300" as="targetPoint" />
          </mxGeometry>
        </mxCell>
        <mxCell id="4SHq5C0YuAlDdYXjMLst-10" value="&lt;font face=&quot;Times New Roman&quot;&gt;inputStr.ToLower() == &quot;exit&quot;&lt;/font&gt;" style="rhombus;whiteSpace=wrap;html=1;" parent="1" vertex="1">
          <mxGeometry x="320" y="300" width="200" height="40" as="geometry" />
        </mxCell>
        <mxCell id="4SHq5C0YuAlDdYXjMLst-12" value="" style="endArrow=classic;html=1;rounded=0;exitX=0.5;exitY=1;exitDx=0;exitDy=0;" parent="1" edge="1">
          <mxGeometry width="50" height="50" relative="1" as="geometry">
            <mxPoint x="419.8" y="340" as="sourcePoint" />
            <mxPoint x="419.8" y="360" as="targetPoint" />
          </mxGeometry>
        </mxCell>
        <mxCell id="4SHq5C0YuAlDdYXjMLst-13" value="&lt;font face=&quot;Times New Roman&quot;&gt;&quot;Выход из программы.&quot;&lt;/font&gt;" style="shape=document;whiteSpace=wrap;html=1;boundedLbl=1;" parent="1" vertex="1">
          <mxGeometry x="320" y="360" width="200" height="20" as="geometry" />
        </mxCell>
        <mxCell id="4SHq5C0YuAlDdYXjMLst-14" value="" style="endArrow=classic;html=1;rounded=0;exitX=0.502;exitY=0.852;exitDx=0;exitDy=0;exitPerimeter=0;" parent="1" source="4SHq5C0YuAlDdYXjMLst-13" edge="1">
          <mxGeometry width="50" height="50" relative="1" as="geometry">
            <mxPoint x="370" y="450" as="sourcePoint" />
            <mxPoint x="420" y="410" as="targetPoint" />
          </mxGeometry>
        </mxCell>
        <mxCell id="4SHq5C0YuAlDdYXjMLst-15" value="" style="endArrow=none;html=1;rounded=0;" parent="1" edge="1">
          <mxGeometry width="50" height="50" relative="1" as="geometry">
            <mxPoint x="520" y="320" as="sourcePoint" />
            <mxPoint x="540" y="320" as="targetPoint" />
          </mxGeometry>
        </mxCell>
        <mxCell id="4SHq5C0YuAlDdYXjMLst-16" value="" style="endArrow=none;html=1;rounded=0;" parent="1" edge="1">
          <mxGeometry width="50" height="50" relative="1" as="geometry">
            <mxPoint x="540" y="320" as="sourcePoint" />
            <mxPoint x="540" y="400" as="targetPoint" />
          </mxGeometry>
        </mxCell>
        <mxCell id="4SHq5C0YuAlDdYXjMLst-17" value="" style="endArrow=classic;html=1;rounded=0;" parent="1" edge="1">
          <mxGeometry width="50" height="50" relative="1" as="geometry">
            <mxPoint x="540" y="400" as="sourcePoint" />
            <mxPoint x="420" y="400" as="targetPoint" />
          </mxGeometry>
        </mxCell>
        <mxCell id="4SHq5C0YuAlDdYXjMLst-18" value="&lt;font face=&quot;Times New Roman&quot;&gt;int.TryParse&lt;/font&gt;&lt;div&gt;&lt;font face=&quot;Times New Roman&quot;&gt;(inputStr, out int input)&amp;nbsp;&lt;/font&gt;&lt;/div&gt;&lt;div&gt;&lt;font face=&quot;Times New Roman&quot;&gt;&amp;amp;&amp;amp; input &amp;gt; 0&lt;/font&gt;&lt;br&gt;&lt;/div&gt;" style="rhombus;whiteSpace=wrap;html=1;" parent="1" vertex="1">
          <mxGeometry x="320" y="410" width="200" height="60" as="geometry" />
        </mxCell>
        <mxCell id="4SHq5C0YuAlDdYXjMLst-19" value="" style="endArrow=classic;html=1;rounded=0;exitX=0.5;exitY=1;exitDx=0;exitDy=0;" parent="1" edge="1">
          <mxGeometry width="50" height="50" relative="1" as="geometry">
            <mxPoint x="419.86" y="470" as="sourcePoint" />
            <mxPoint x="419.86" y="490" as="targetPoint" />
          </mxGeometry>
        </mxCell>
        <mxCell id="4SHq5C0YuAlDdYXjMLst-20" value="&lt;font face=&quot;Times New Roman&quot;&gt;int sum = _jFibonacciProcess(input);&lt;/font&gt;" style="rounded=0;whiteSpace=wrap;html=1;" parent="1" vertex="1">
          <mxGeometry x="320" y="490" width="200" height="20" as="geometry" />
        </mxCell>
        <mxCell id="4SHq5C0YuAlDdYXjMLst-21" value="" style="endArrow=classic;html=1;rounded=0;exitX=0.5;exitY=1;exitDx=0;exitDy=0;" parent="1" edge="1">
          <mxGeometry width="50" height="50" relative="1" as="geometry">
            <mxPoint x="419.86" y="510" as="sourcePoint" />
            <mxPoint x="420" y="530" as="targetPoint" />
          </mxGeometry>
        </mxCell>
        <mxCell id="4SHq5C0YuAlDdYXjMLst-22" value="" style="endArrow=none;html=1;rounded=0;" parent="1" edge="1">
          <mxGeometry width="50" height="50" relative="1" as="geometry">
            <mxPoint x="520" y="440" as="sourcePoint" />
            <mxPoint x="630" y="440" as="targetPoint" />
          </mxGeometry>
        </mxCell>
        <mxCell id="4SHq5C0YuAlDdYXjMLst-25" value="&lt;font face=&quot;Times New Roman&quot;&gt;$&quot;Сумма цифр = {sum}&quot;&lt;/font&gt;" style="shape=document;whiteSpace=wrap;html=1;boundedLbl=1;" parent="1" vertex="1">
          <mxGeometry x="320" y="530" width="200" height="20" as="geometry" />
        </mxCell>
        <mxCell id="4SHq5C0YuAlDdYXjMLst-27" value="" style="endArrow=classic;html=1;rounded=0;" parent="1" edge="1">
          <mxGeometry width="50" height="50" relative="1" as="geometry">
            <mxPoint x="630" y="560" as="sourcePoint" />
            <mxPoint x="420" y="560" as="targetPoint" />
          </mxGeometry>
        </mxCell>
        <mxCell id="4SHq5C0YuAlDdYXjMLst-28" value="&lt;font style=&quot;font-size: 11px;&quot; face=&quot;Times New Roman&quot;&gt;&quot;Некорректный ввод. Введите положительное целое число или &#39;exit&#39;.&quot;&lt;/font&gt;" style="shape=document;whiteSpace=wrap;html=1;boundedLbl=1;" parent="1" vertex="1">
          <mxGeometry x="530" y="490" width="200" height="50" as="geometry" />
        </mxCell>
        <mxCell id="4SHq5C0YuAlDdYXjMLst-29" value="" style="endArrow=classic;html=1;rounded=0;" parent="1" edge="1">
          <mxGeometry width="50" height="50" relative="1" as="geometry">
            <mxPoint x="630" y="440" as="sourcePoint" />
            <mxPoint x="630" y="490" as="targetPoint" />
          </mxGeometry>
        </mxCell>
        <mxCell id="4SHq5C0YuAlDdYXjMLst-30" value="" style="endArrow=none;html=1;rounded=0;exitX=0.498;exitY=0.864;exitDx=0;exitDy=0;exitPerimeter=0;" parent="1" source="4SHq5C0YuAlDdYXjMLst-28" edge="1">
          <mxGeometry width="50" height="50" relative="1" as="geometry">
            <mxPoint x="580" y="610" as="sourcePoint" />
            <mxPoint x="630" y="560" as="targetPoint" />
          </mxGeometry>
        </mxCell>
        <mxCell id="4SHq5C0YuAlDdYXjMLst-31" value="" style="endArrow=none;html=1;rounded=0;entryX=0.502;entryY=0.829;entryDx=0;entryDy=0;entryPerimeter=0;" parent="1" target="4SHq5C0YuAlDdYXjMLst-25" edge="1">
          <mxGeometry width="50" height="50" relative="1" as="geometry">
            <mxPoint x="420" y="580" as="sourcePoint" />
            <mxPoint x="420" y="560" as="targetPoint" />
          </mxGeometry>
        </mxCell>
        <mxCell id="4SHq5C0YuAlDdYXjMLst-32" value="" style="endArrow=none;html=1;rounded=0;" parent="1" edge="1">
          <mxGeometry width="50" height="50" relative="1" as="geometry">
            <mxPoint x="300" y="580" as="sourcePoint" />
            <mxPoint x="420" y="580" as="targetPoint" />
          </mxGeometry>
        </mxCell>
        <mxCell id="4SHq5C0YuAlDdYXjMLst-33" value="" style="endArrow=none;html=1;rounded=0;" parent="1" edge="1">
          <mxGeometry width="50" height="50" relative="1" as="geometry">
            <mxPoint x="300" y="140" as="sourcePoint" />
            <mxPoint x="300" y="580" as="targetPoint" />
          </mxGeometry>
        </mxCell>
        <mxCell id="4SHq5C0YuAlDdYXjMLst-34" value="" style="endArrow=classic;html=1;rounded=0;" parent="1" edge="1">
          <mxGeometry width="50" height="50" relative="1" as="geometry">
            <mxPoint x="300" y="140" as="sourcePoint" />
            <mxPoint x="320" y="140" as="targetPoint" />
          </mxGeometry>
        </mxCell>
        <mxCell id="4SHq5C0YuAlDdYXjMLst-35" value="" style="endArrow=none;html=1;rounded=0;" parent="1" edge="1">
          <mxGeometry width="50" height="50" relative="1" as="geometry">
            <mxPoint x="520" y="140" as="sourcePoint" />
            <mxPoint x="740" y="140" as="targetPoint" />
          </mxGeometry>
        </mxCell>
        <mxCell id="4SHq5C0YuAlDdYXjMLst-36" value="" style="endArrow=none;html=1;rounded=0;" parent="1" edge="1">
          <mxGeometry width="50" height="50" relative="1" as="geometry">
            <mxPoint x="740" y="600" as="sourcePoint" />
            <mxPoint x="740" y="140" as="targetPoint" />
          </mxGeometry>
        </mxCell>
        <mxCell id="4SHq5C0YuAlDdYXjMLst-37" value="" style="endArrow=none;html=1;rounded=0;" parent="1" edge="1">
          <mxGeometry width="50" height="50" relative="1" as="geometry">
            <mxPoint x="420" y="600" as="sourcePoint" />
            <mxPoint x="740" y="600" as="targetPoint" />
          </mxGeometry>
        </mxCell>
        <mxCell id="4SHq5C0YuAlDdYXjMLst-38" value="" style="endArrow=classic;html=1;rounded=0;" parent="1" edge="1">
          <mxGeometry width="50" height="50" relative="1" as="geometry">
            <mxPoint x="420" y="600" as="sourcePoint" />
            <mxPoint x="420" y="620" as="targetPoint" />
          </mxGeometry>
        </mxCell>
        <mxCell id="4SHq5C0YuAlDdYXjMLst-39" value="&lt;font face=&quot;Times New Roman&quot;&gt;Конец&lt;/font&gt;" style="ellipse;whiteSpace=wrap;html=1;" parent="1" vertex="1">
          <mxGeometry x="320" y="620" width="200" height="40" as="geometry" />
        </mxCell>
        <mxCell id="4SHq5C0YuAlDdYXjMLst-40" value="" style="endArrow=classic;html=1;rounded=0;" parent="1" edge="1">
          <mxGeometry width="50" height="50" relative="1" as="geometry">
            <mxPoint x="420" y="390" as="sourcePoint" />
            <mxPoint x="740.4444037543403" y="390" as="targetPoint" />
          </mxGeometry>
        </mxCell>
        <mxCell id="4SHq5C0YuAlDdYXjMLst-43" value="&lt;font face=&quot;Times New Roman&quot;&gt;True&lt;/font&gt;" style="text;html=1;align=center;verticalAlign=middle;resizable=0;points=[];autosize=1;strokeColor=none;fillColor=none;" parent="1" vertex="1">
          <mxGeometry x="414" y="330" width="50" height="30" as="geometry" />
        </mxCell>
        <mxCell id="4SHq5C0YuAlDdYXjMLst-44" value="&lt;font face=&quot;Times New Roman&quot;&gt;False&lt;/font&gt;" style="text;html=1;align=center;verticalAlign=middle;resizable=0;points=[];autosize=1;strokeColor=none;fillColor=none;" parent="1" vertex="1">
          <mxGeometry x="510" y="290" width="50" height="30" as="geometry" />
        </mxCell>
        <mxCell id="4SHq5C0YuAlDdYXjMLst-45" value="&lt;font face=&quot;Times New Roman&quot;&gt;True&lt;/font&gt;" style="text;html=1;align=center;verticalAlign=middle;resizable=0;points=[];autosize=1;strokeColor=none;fillColor=none;" parent="1" vertex="1">
          <mxGeometry x="414" y="460" width="50" height="30" as="geometry" />
        </mxCell>
        <mxCell id="4SHq5C0YuAlDdYXjMLst-46" value="&lt;font face=&quot;Times New Roman&quot;&gt;False&lt;/font&gt;" style="text;html=1;align=center;verticalAlign=middle;resizable=0;points=[];autosize=1;strokeColor=none;fillColor=none;" parent="1" vertex="1">
          <mxGeometry x="510" y="420" width="50" height="30" as="geometry" />
        </mxCell>
        <mxCell id="4SHq5C0YuAlDdYXjMLst-47" value="&lt;font face=&quot;Times New Roman&quot;&gt;1&lt;/font&gt;" style="text;html=1;align=center;verticalAlign=middle;resizable=0;points=[];autosize=1;strokeColor=none;fillColor=none;" parent="1" vertex="1">
          <mxGeometry x="230" y="50" width="30" height="30" as="geometry" />
        </mxCell>
        <mxCell id="4SHq5C0YuAlDdYXjMLst-48" value="&lt;font face=&quot;Times New Roman&quot;&gt;2&lt;/font&gt;" style="text;html=1;align=center;verticalAlign=middle;resizable=0;points=[];autosize=1;strokeColor=none;fillColor=none;" parent="1" vertex="1">
          <mxGeometry x="230" y="130" width="30" height="30" as="geometry" />
        </mxCell>
        <mxCell id="4SHq5C0YuAlDdYXjMLst-49" value="&lt;font face=&quot;Times New Roman&quot;&gt;3&lt;/font&gt;" style="text;html=1;align=center;verticalAlign=middle;resizable=0;points=[];autosize=1;strokeColor=none;fillColor=none;" parent="1" vertex="1">
          <mxGeometry x="230" y="210" width="30" height="30" as="geometry" />
        </mxCell>
        <mxCell id="4SHq5C0YuAlDdYXjMLst-50" value="&lt;font face=&quot;Times New Roman&quot;&gt;4&lt;/font&gt;" style="text;html=1;align=center;verticalAlign=middle;resizable=0;points=[];autosize=1;strokeColor=none;fillColor=none;" parent="1" vertex="1">
          <mxGeometry x="230" y="250" width="30" height="30" as="geometry" />
        </mxCell>
        <mxCell id="4SHq5C0YuAlDdYXjMLst-52" value="&lt;font face=&quot;Times New Roman&quot;&gt;5&lt;/font&gt;" style="text;html=1;align=center;verticalAlign=middle;resizable=0;points=[];autosize=1;strokeColor=none;fillColor=none;" parent="1" vertex="1">
          <mxGeometry x="230" y="290" width="30" height="30" as="geometry" />
        </mxCell>
        <mxCell id="4SHq5C0YuAlDdYXjMLst-53" value="&lt;font face=&quot;Times New Roman&quot;&gt;6&lt;/font&gt;" style="text;html=1;align=center;verticalAlign=middle;resizable=0;points=[];autosize=1;strokeColor=none;fillColor=none;" parent="1" vertex="1">
          <mxGeometry x="230" y="355" width="30" height="30" as="geometry" />
        </mxCell>
        <mxCell id="4SHq5C0YuAlDdYXjMLst-54" value="&lt;font face=&quot;Times New Roman&quot;&gt;7&lt;/font&gt;" style="text;html=1;align=center;verticalAlign=middle;resizable=0;points=[];autosize=1;strokeColor=none;fillColor=none;" parent="1" vertex="1">
          <mxGeometry x="230" y="420" width="30" height="30" as="geometry" />
        </mxCell>
        <mxCell id="4SHq5C0YuAlDdYXjMLst-55" value="&lt;font face=&quot;Times New Roman&quot;&gt;8&lt;/font&gt;" style="text;html=1;align=center;verticalAlign=middle;resizable=0;points=[];autosize=1;strokeColor=none;fillColor=none;" parent="1" vertex="1">
          <mxGeometry x="230" y="485" width="30" height="30" as="geometry" />
        </mxCell>
        <mxCell id="4SHq5C0YuAlDdYXjMLst-56" value="&lt;font face=&quot;Times New Roman&quot;&gt;9&lt;/font&gt;" style="text;html=1;align=center;verticalAlign=middle;resizable=0;points=[];autosize=1;strokeColor=none;fillColor=none;" parent="1" vertex="1">
          <mxGeometry x="530" y="460" width="30" height="30" as="geometry" />
        </mxCell>
        <mxCell id="4SHq5C0YuAlDdYXjMLst-57" value="&lt;font face=&quot;Times New Roman&quot;&gt;10&lt;/font&gt;" style="text;html=1;align=center;verticalAlign=middle;resizable=0;points=[];autosize=1;strokeColor=none;fillColor=none;" parent="1" vertex="1">
          <mxGeometry x="225" y="525" width="40" height="30" as="geometry" />
        </mxCell>
        <mxCell id="4SHq5C0YuAlDdYXjMLst-58" value="&lt;font face=&quot;Times New Roman&quot;&gt;11&lt;/font&gt;" style="text;html=1;align=center;verticalAlign=middle;resizable=0;points=[];autosize=1;strokeColor=none;fillColor=none;" parent="1" vertex="1">
          <mxGeometry x="225" y="620" width="40" height="30" as="geometry" />
        </mxCell>
        <mxCell id="4SHq5C0YuAlDdYXjMLst-59" value="&lt;font style=&quot;font-size: 12px;&quot; face=&quot;Times New Roman&quot;&gt;Начало&lt;/font&gt;" style="ellipse;whiteSpace=wrap;html=1;" parent="1" vertex="1">
          <mxGeometry x="320" y="720" width="200" height="40" as="geometry" />
        </mxCell>
        <mxCell id="4SHq5C0YuAlDdYXjMLst-60" value="" style="endArrow=classic;html=1;rounded=0;exitX=0.5;exitY=1;exitDx=0;exitDy=0;" parent="1" source="4SHq5C0YuAlDdYXjMLst-59" edge="1">
          <mxGeometry width="50" height="50" relative="1" as="geometry">
            <mxPoint x="370" y="830" as="sourcePoint" />
            <mxPoint x="420" y="780" as="targetPoint" />
            <Array as="points">
              <mxPoint x="420" y="770" />
            </Array>
          </mxGeometry>
        </mxCell>
        <mxCell id="4SHq5C0YuAlDdYXjMLst-61" value="&lt;font face=&quot;Times New Roman&quot;&gt;int a = 0, b = 1;&lt;/font&gt;&lt;div&gt;&lt;font face=&quot;Times New Roman&quot;&gt;int totalDigitSum = 0;&lt;br&gt;&lt;/font&gt;&lt;/div&gt;" style="rounded=0;whiteSpace=wrap;html=1;" parent="1" vertex="1">
          <mxGeometry x="320" y="780" width="200" height="40" as="geometry" />
        </mxCell>
        <mxCell id="4SHq5C0YuAlDdYXjMLst-62" value="" style="endArrow=classic;html=1;rounded=0;exitX=0.5;exitY=1;exitDx=0;exitDy=0;" parent="1" edge="1">
          <mxGeometry width="50" height="50" relative="1" as="geometry">
            <mxPoint x="419.76" y="820" as="sourcePoint" />
            <mxPoint x="419.76" y="840" as="targetPoint" />
            <Array as="points">
              <mxPoint x="419.76" y="830" />
            </Array>
          </mxGeometry>
        </mxCell>
        <mxCell id="4SHq5C0YuAlDdYXjMLst-63" value="&lt;font face=&quot;Times New Roman&quot;&gt;&quot;Последовательность Фибоначи:&quot;&lt;/font&gt;" style="shape=document;whiteSpace=wrap;html=1;boundedLbl=1;" parent="1" vertex="1">
          <mxGeometry x="320" y="840" width="200" height="40" as="geometry" />
        </mxCell>
        <mxCell id="4SHq5C0YuAlDdYXjMLst-64" value="" style="endArrow=classic;html=1;rounded=0;exitX=0.497;exitY=0.859;exitDx=0;exitDy=0;exitPerimeter=0;" parent="1" source="4SHq5C0YuAlDdYXjMLst-63" edge="1">
          <mxGeometry width="50" height="50" relative="1" as="geometry">
            <mxPoint x="370" y="950" as="sourcePoint" />
            <mxPoint x="420" y="900" as="targetPoint" />
          </mxGeometry>
        </mxCell>
        <mxCell id="4SHq5C0YuAlDdYXjMLst-65" value="&lt;font face=&quot;Times New Roman&quot;&gt;int i = 1; i &amp;lt;= m; i++&lt;/font&gt;" style="shape=hexagon;perimeter=hexagonPerimeter2;whiteSpace=wrap;html=1;fixedSize=1;" parent="1" vertex="1">
          <mxGeometry x="320" y="900" width="200" height="20" as="geometry" />
        </mxCell>
        <mxCell id="4SHq5C0YuAlDdYXjMLst-66" value="" style="endArrow=classic;html=1;rounded=0;exitX=0.5;exitY=1;exitDx=0;exitDy=0;" parent="1" source="4SHq5C0YuAlDdYXjMLst-65" edge="1">
          <mxGeometry width="50" height="50" relative="1" as="geometry">
            <mxPoint x="370" y="990" as="sourcePoint" />
            <mxPoint x="420" y="940" as="targetPoint" />
          </mxGeometry>
        </mxCell>
        <mxCell id="4SHq5C0YuAlDdYXjMLst-67" value="&lt;div&gt;&lt;font face=&quot;Times New Roman&quot;&gt;int fib;&lt;br&gt;&lt;/font&gt;&lt;/div&gt;" style="rounded=0;whiteSpace=wrap;html=1;" parent="1" vertex="1">
          <mxGeometry x="320" y="940" width="200" height="20" as="geometry" />
        </mxCell>
        <mxCell id="4SHq5C0YuAlDdYXjMLst-68" value="" style="endArrow=classic;html=1;rounded=0;exitX=0.5;exitY=1;exitDx=0;exitDy=0;" parent="1" edge="1">
          <mxGeometry width="50" height="50" relative="1" as="geometry">
            <mxPoint x="419.83" y="960" as="sourcePoint" />
            <mxPoint x="419.83" y="980" as="targetPoint" />
          </mxGeometry>
        </mxCell>
        <mxCell id="4SHq5C0YuAlDdYXjMLst-69" value="&lt;div&gt;&lt;font face=&quot;Times New Roman&quot;&gt;i == 1&lt;/font&gt;&lt;br&gt;&lt;/div&gt;" style="rhombus;whiteSpace=wrap;html=1;" parent="1" vertex="1">
          <mxGeometry x="320" y="980" width="200" height="20" as="geometry" />
        </mxCell>
        <mxCell id="4SHq5C0YuAlDdYXjMLst-70" value="" style="endArrow=classic;html=1;rounded=0;exitX=0.5;exitY=1;exitDx=0;exitDy=0;" parent="1" edge="1">
          <mxGeometry width="50" height="50" relative="1" as="geometry">
            <mxPoint x="419.89" y="1000" as="sourcePoint" />
            <mxPoint x="419.89" y="1020" as="targetPoint" />
          </mxGeometry>
        </mxCell>
        <mxCell id="4SHq5C0YuAlDdYXjMLst-71" value="&lt;div&gt;&lt;font face=&quot;Times New Roman&quot;&gt;fib = 1;&lt;br&gt;&lt;/font&gt;&lt;/div&gt;" style="rounded=0;whiteSpace=wrap;html=1;" parent="1" vertex="1">
          <mxGeometry x="320" y="1020" width="200" height="20" as="geometry" />
        </mxCell>
        <mxCell id="4SHq5C0YuAlDdYXjMLst-72" value="" style="endArrow=classic;html=1;rounded=0;exitX=0.5;exitY=1;exitDx=0;exitDy=0;" parent="1" edge="1">
          <mxGeometry width="50" height="50" relative="1" as="geometry">
            <mxPoint x="419.86" y="1040" as="sourcePoint" />
            <mxPoint x="420" y="1100" as="targetPoint" />
          </mxGeometry>
        </mxCell>
        <mxCell id="4SHq5C0YuAlDdYXjMLst-73" value="&lt;div&gt;&lt;font face=&quot;Times New Roman&quot;&gt;&lt;div&gt;&amp;nbsp;fib = a + b;&lt;/div&gt;&lt;div&gt;&amp;nbsp;a = b;&lt;/div&gt;&lt;div&gt;&amp;nbsp;b = fib;&lt;/div&gt;&lt;/font&gt;&lt;/div&gt;" style="rounded=0;whiteSpace=wrap;html=1;" parent="1" vertex="1">
          <mxGeometry x="530" y="1020" width="200" height="50" as="geometry" />
        </mxCell>
        <mxCell id="4SHq5C0YuAlDdYXjMLst-74" value="" style="endArrow=none;html=1;rounded=0;" parent="1" edge="1">
          <mxGeometry width="50" height="50" relative="1" as="geometry">
            <mxPoint x="520" y="990" as="sourcePoint" />
            <mxPoint x="630" y="990" as="targetPoint" />
          </mxGeometry>
        </mxCell>
        <mxCell id="4SHq5C0YuAlDdYXjMLst-75" value="" style="endArrow=classic;html=1;rounded=0;" parent="1" edge="1">
          <mxGeometry width="50" height="50" relative="1" as="geometry">
            <mxPoint x="630" y="990" as="sourcePoint" />
            <mxPoint x="630" y="1020" as="targetPoint" />
          </mxGeometry>
        </mxCell>
        <mxCell id="4SHq5C0YuAlDdYXjMLst-76" value="" style="endArrow=none;html=1;rounded=0;" parent="1" edge="1">
          <mxGeometry width="50" height="50" relative="1" as="geometry">
            <mxPoint x="630" y="1080" as="sourcePoint" />
            <mxPoint x="630" y="1070" as="targetPoint" />
          </mxGeometry>
        </mxCell>
        <mxCell id="4SHq5C0YuAlDdYXjMLst-78" value="" style="endArrow=classic;html=1;rounded=0;" parent="1" edge="1">
          <mxGeometry width="50" height="50" relative="1" as="geometry">
            <mxPoint x="630" y="1080" as="sourcePoint" />
            <mxPoint x="420" y="1080" as="targetPoint" />
          </mxGeometry>
        </mxCell>
        <mxCell id="4SHq5C0YuAlDdYXjMLst-79" value="&lt;font face=&quot;Times New Roman&quot;&gt;$&quot;F({i}) = {fib}&quot;&lt;/font&gt;" style="shape=document;whiteSpace=wrap;html=1;boundedLbl=1;" parent="1" vertex="1">
          <mxGeometry x="320" y="1100" width="200" height="40" as="geometry" />
        </mxCell>
        <mxCell id="4SHq5C0YuAlDdYXjMLst-80" value="" style="endArrow=classic;html=1;rounded=0;exitX=0.499;exitY=0.862;exitDx=0;exitDy=0;exitPerimeter=0;" parent="1" source="4SHq5C0YuAlDdYXjMLst-79" edge="1">
          <mxGeometry width="50" height="50" relative="1" as="geometry">
            <mxPoint x="370" y="1210" as="sourcePoint" />
            <mxPoint x="420" y="1160" as="targetPoint" />
          </mxGeometry>
        </mxCell>
        <mxCell id="4SHq5C0YuAlDdYXjMLst-81" value="&lt;div&gt;&lt;font face=&quot;Times New Roman&quot;&gt;int temp = fib;&lt;br&gt;&lt;/font&gt;&lt;/div&gt;" style="rounded=0;whiteSpace=wrap;html=1;" parent="1" vertex="1">
          <mxGeometry x="320" y="1160" width="200" height="20" as="geometry" />
        </mxCell>
        <mxCell id="4SHq5C0YuAlDdYXjMLst-82" value="" style="endArrow=classic;html=1;rounded=0;exitX=0.5;exitY=1;exitDx=0;exitDy=0;" parent="1" source="4SHq5C0YuAlDdYXjMLst-81" edge="1">
          <mxGeometry width="50" height="50" relative="1" as="geometry">
            <mxPoint x="370" y="1250" as="sourcePoint" />
            <mxPoint x="420" y="1200" as="targetPoint" />
          </mxGeometry>
        </mxCell>
        <mxCell id="4SHq5C0YuAlDdYXjMLst-83" value="&lt;div&gt;&lt;font face=&quot;Times New Roman&quot;&gt;temp != 0&lt;/font&gt;&lt;br&gt;&lt;/div&gt;" style="rhombus;whiteSpace=wrap;html=1;" parent="1" vertex="1">
          <mxGeometry x="320" y="1200" width="200" height="20" as="geometry" />
        </mxCell>
        <mxCell id="4SHq5C0YuAlDdYXjMLst-84" value="" style="endArrow=classic;html=1;rounded=0;exitX=0.5;exitY=1;exitDx=0;exitDy=0;" parent="1" edge="1">
          <mxGeometry width="50" height="50" relative="1" as="geometry">
            <mxPoint x="419.86" y="1220" as="sourcePoint" />
            <mxPoint x="419.86" y="1240" as="targetPoint" />
          </mxGeometry>
        </mxCell>
        <mxCell id="4SHq5C0YuAlDdYXjMLst-85" value="&lt;div&gt;&lt;font face=&quot;Times New Roman&quot;&gt;&lt;div&gt;totalDigitSum += temp % 10;&lt;/div&gt;&lt;div&gt;temp /= 10;&lt;/div&gt;&lt;/font&gt;&lt;/div&gt;" style="rounded=0;whiteSpace=wrap;html=1;" parent="1" vertex="1">
          <mxGeometry x="320" y="1240" width="200" height="40" as="geometry" />
        </mxCell>
        <mxCell id="4SHq5C0YuAlDdYXjMLst-87" value="" style="endArrow=none;html=1;rounded=0;" parent="1" edge="1">
          <mxGeometry width="50" height="50" relative="1" as="geometry">
            <mxPoint x="420" y="1290" as="sourcePoint" />
            <mxPoint x="419.86" y="1280" as="targetPoint" />
          </mxGeometry>
        </mxCell>
        <mxCell id="4SHq5C0YuAlDdYXjMLst-88" value="" style="endArrow=none;html=1;rounded=0;" parent="1" edge="1">
          <mxGeometry width="50" height="50" relative="1" as="geometry">
            <mxPoint x="310" y="1290" as="sourcePoint" />
            <mxPoint x="420" y="1290" as="targetPoint" />
          </mxGeometry>
        </mxCell>
        <mxCell id="4SHq5C0YuAlDdYXjMLst-89" value="" style="endArrow=none;html=1;rounded=0;" parent="1" edge="1">
          <mxGeometry width="50" height="50" relative="1" as="geometry">
            <mxPoint x="310" y="1290" as="sourcePoint" />
            <mxPoint x="310" y="1210" as="targetPoint" />
          </mxGeometry>
        </mxCell>
        <mxCell id="4SHq5C0YuAlDdYXjMLst-90" value="" style="endArrow=classic;html=1;rounded=0;" parent="1" edge="1">
          <mxGeometry width="50" height="50" relative="1" as="geometry">
            <mxPoint x="310" y="1210" as="sourcePoint" />
            <mxPoint x="320" y="1210" as="targetPoint" />
          </mxGeometry>
        </mxCell>
        <mxCell id="4SHq5C0YuAlDdYXjMLst-91" value="" style="endArrow=none;html=1;rounded=0;" parent="1" edge="1">
          <mxGeometry width="50" height="50" relative="1" as="geometry">
            <mxPoint x="520" y="1210" as="sourcePoint" />
            <mxPoint x="530" y="1210" as="targetPoint" />
          </mxGeometry>
        </mxCell>
        <mxCell id="4SHq5C0YuAlDdYXjMLst-92" value="" style="endArrow=none;html=1;rounded=0;" parent="1" edge="1">
          <mxGeometry width="50" height="50" relative="1" as="geometry">
            <mxPoint x="530" y="1300" as="sourcePoint" />
            <mxPoint x="530" y="1210" as="targetPoint" />
          </mxGeometry>
        </mxCell>
        <mxCell id="4SHq5C0YuAlDdYXjMLst-93" value="" style="endArrow=none;html=1;rounded=0;" parent="1" edge="1">
          <mxGeometry width="50" height="50" relative="1" as="geometry">
            <mxPoint x="300" y="1300" as="sourcePoint" />
            <mxPoint x="530" y="1300" as="targetPoint" />
          </mxGeometry>
        </mxCell>
        <mxCell id="4SHq5C0YuAlDdYXjMLst-96" value="" style="endArrow=none;html=1;rounded=0;" parent="1" edge="1">
          <mxGeometry width="50" height="50" relative="1" as="geometry">
            <mxPoint x="300" y="910" as="sourcePoint" />
            <mxPoint x="300" y="1300" as="targetPoint" />
          </mxGeometry>
        </mxCell>
        <mxCell id="4SHq5C0YuAlDdYXjMLst-97" value="" style="endArrow=classic;html=1;rounded=0;" parent="1" edge="1">
          <mxGeometry width="50" height="50" relative="1" as="geometry">
            <mxPoint x="300" y="910" as="sourcePoint" />
            <mxPoint x="320" y="910" as="targetPoint" />
          </mxGeometry>
        </mxCell>
        <mxCell id="4SHq5C0YuAlDdYXjMLst-98" value="" style="endArrow=none;html=1;rounded=0;" parent="1" edge="1">
          <mxGeometry width="50" height="50" relative="1" as="geometry">
            <mxPoint x="520" y="910" as="sourcePoint" />
            <mxPoint x="740" y="910" as="targetPoint" />
          </mxGeometry>
        </mxCell>
        <mxCell id="4SHq5C0YuAlDdYXjMLst-99" value="" style="endArrow=none;html=1;rounded=0;" parent="1" edge="1">
          <mxGeometry width="50" height="50" relative="1" as="geometry">
            <mxPoint x="740" y="1310" as="sourcePoint" />
            <mxPoint x="740" y="910" as="targetPoint" />
          </mxGeometry>
        </mxCell>
        <mxCell id="4SHq5C0YuAlDdYXjMLst-100" value="" style="endArrow=none;html=1;rounded=0;" parent="1" edge="1">
          <mxGeometry width="50" height="50" relative="1" as="geometry">
            <mxPoint x="420" y="1310" as="sourcePoint" />
            <mxPoint x="740" y="1310" as="targetPoint" />
          </mxGeometry>
        </mxCell>
        <mxCell id="4SHq5C0YuAlDdYXjMLst-101" value="" style="endArrow=classic;html=1;rounded=0;" parent="1" edge="1">
          <mxGeometry width="50" height="50" relative="1" as="geometry">
            <mxPoint x="420" y="1310" as="sourcePoint" />
            <mxPoint x="420" y="1340" as="targetPoint" />
          </mxGeometry>
        </mxCell>
        <mxCell id="4SHq5C0YuAlDdYXjMLst-102" value="&lt;font face=&quot;Times New Roman&quot;&gt;return totalDigitSum;&lt;br&gt;&lt;/font&gt;" style="rounded=0;whiteSpace=wrap;html=1;" parent="1" vertex="1">
          <mxGeometry x="320" y="1340" width="200" height="40" as="geometry" />
        </mxCell>
        <mxCell id="4SHq5C0YuAlDdYXjMLst-103" value="" style="endArrow=classic;html=1;rounded=0;" parent="1" edge="1">
          <mxGeometry width="50" height="50" relative="1" as="geometry">
            <mxPoint x="419.86" y="1380" as="sourcePoint" />
            <mxPoint x="420" y="1400" as="targetPoint" />
          </mxGeometry>
        </mxCell>
        <mxCell id="4SHq5C0YuAlDdYXjMLst-104" value="&lt;font face=&quot;Times New Roman&quot;&gt;Конец&lt;/font&gt;" style="ellipse;whiteSpace=wrap;html=1;" parent="1" vertex="1">
          <mxGeometry x="320" y="1400" width="200" height="40" as="geometry" />
        </mxCell>
        <mxCell id="4SHq5C0YuAlDdYXjMLst-106" value="&lt;font face=&quot;Times New Roman&quot;&gt;8.1&lt;/font&gt;" style="text;html=1;align=center;verticalAlign=middle;resizable=0;points=[];autosize=1;strokeColor=none;fillColor=none;" parent="1" vertex="1">
          <mxGeometry x="225" y="730" width="40" height="30" as="geometry" />
        </mxCell>
        <mxCell id="4SHq5C0YuAlDdYXjMLst-107" value="&lt;font face=&quot;Times New Roman&quot;&gt;8.2&lt;/font&gt;" style="text;html=1;align=center;verticalAlign=middle;resizable=0;points=[];autosize=1;strokeColor=none;fillColor=none;" parent="1" vertex="1">
          <mxGeometry x="225" y="790" width="40" height="30" as="geometry" />
        </mxCell>
        <mxCell id="4SHq5C0YuAlDdYXjMLst-108" value="&lt;font face=&quot;Times New Roman&quot;&gt;8.3&lt;/font&gt;" style="text;html=1;align=center;verticalAlign=middle;resizable=0;points=[];autosize=1;strokeColor=none;fillColor=none;" parent="1" vertex="1">
          <mxGeometry x="225" y="850" width="40" height="30" as="geometry" />
        </mxCell>
        <mxCell id="4SHq5C0YuAlDdYXjMLst-109" value="&lt;font face=&quot;Times New Roman&quot;&gt;8.4&lt;/font&gt;" style="text;html=1;align=center;verticalAlign=middle;resizable=0;points=[];autosize=1;strokeColor=none;fillColor=none;" parent="1" vertex="1">
          <mxGeometry x="225" y="895" width="40" height="30" as="geometry" />
        </mxCell>
        <mxCell id="4SHq5C0YuAlDdYXjMLst-110" value="&lt;font face=&quot;Times New Roman&quot;&gt;8.5&lt;/font&gt;" style="text;html=1;align=center;verticalAlign=middle;resizable=0;points=[];autosize=1;strokeColor=none;fillColor=none;" parent="1" vertex="1">
          <mxGeometry x="225" y="935" width="40" height="30" as="geometry" />
        </mxCell>
        <mxCell id="4SHq5C0YuAlDdYXjMLst-111" value="&lt;font face=&quot;Times New Roman&quot;&gt;8.6&lt;/font&gt;" style="text;html=1;align=center;verticalAlign=middle;resizable=0;points=[];autosize=1;strokeColor=none;fillColor=none;" parent="1" vertex="1">
          <mxGeometry x="225" y="975" width="40" height="30" as="geometry" />
        </mxCell>
        <mxCell id="4SHq5C0YuAlDdYXjMLst-112" value="&lt;font face=&quot;Times New Roman&quot;&gt;8.7&lt;/font&gt;" style="text;html=1;align=center;verticalAlign=middle;resizable=0;points=[];autosize=1;strokeColor=none;fillColor=none;" parent="1" vertex="1">
          <mxGeometry x="225" y="1015" width="40" height="30" as="geometry" />
        </mxCell>
        <mxCell id="4SHq5C0YuAlDdYXjMLst-113" value="&lt;font face=&quot;Times New Roman&quot;&gt;8.8&lt;/font&gt;" style="text;html=1;align=center;verticalAlign=middle;resizable=0;points=[];autosize=1;strokeColor=none;fillColor=none;" parent="1" vertex="1">
          <mxGeometry x="525" y="1000" width="40" height="30" as="geometry" />
        </mxCell>
        <mxCell id="4SHq5C0YuAlDdYXjMLst-114" value="&lt;font face=&quot;Times New Roman&quot;&gt;8.9&lt;/font&gt;" style="text;html=1;align=center;verticalAlign=middle;resizable=0;points=[];autosize=1;strokeColor=none;fillColor=none;" parent="1" vertex="1">
          <mxGeometry x="225" y="1110" width="40" height="30" as="geometry" />
        </mxCell>
        <mxCell id="4SHq5C0YuAlDdYXjMLst-115" value="&lt;font face=&quot;Times New Roman&quot;&gt;8.10&lt;/font&gt;" style="text;html=1;align=center;verticalAlign=middle;resizable=0;points=[];autosize=1;strokeColor=none;fillColor=none;" parent="1" vertex="1">
          <mxGeometry x="225" y="1155" width="40" height="30" as="geometry" />
        </mxCell>
        <mxCell id="4SHq5C0YuAlDdYXjMLst-116" value="&lt;font face=&quot;Times New Roman&quot;&gt;8.11&lt;/font&gt;" style="text;html=1;align=center;verticalAlign=middle;resizable=0;points=[];autosize=1;strokeColor=none;fillColor=none;" parent="1" vertex="1">
          <mxGeometry x="225" y="1195" width="40" height="30" as="geometry" />
        </mxCell>
        <mxCell id="4SHq5C0YuAlDdYXjMLst-117" value="&lt;font face=&quot;Times New Roman&quot;&gt;8.12&lt;/font&gt;" style="text;html=1;align=center;verticalAlign=middle;resizable=0;points=[];autosize=1;strokeColor=none;fillColor=none;" parent="1" vertex="1">
          <mxGeometry x="225" y="1250" width="40" height="30" as="geometry" />
        </mxCell>
        <mxCell id="4SHq5C0YuAlDdYXjMLst-118" value="&lt;font face=&quot;Times New Roman&quot;&gt;8.13&lt;/font&gt;" style="text;html=1;align=center;verticalAlign=middle;resizable=0;points=[];autosize=1;strokeColor=none;fillColor=none;" parent="1" vertex="1">
          <mxGeometry x="225" y="1350" width="40" height="30" as="geometry" />
        </mxCell>
        <mxCell id="4SHq5C0YuAlDdYXjMLst-119" value="&lt;font face=&quot;Times New Roman&quot;&gt;8.14&lt;/font&gt;" style="text;html=1;align=center;verticalAlign=middle;resizable=0;points=[];autosize=1;strokeColor=none;fillColor=none;" parent="1" vertex="1">
          <mxGeometry x="225" y="1410" width="40" height="30" as="geometry" />
        </mxCell>
        <mxCell id="4SHq5C0YuAlDdYXjMLst-120" value="&lt;font face=&quot;Times New Roman&quot;&gt;метод&amp;nbsp;static int _jFibonacciProcess(int m)&lt;/font&gt;" style="text;html=1;align=center;verticalAlign=middle;resizable=0;points=[];autosize=1;strokeColor=none;fillColor=none;" parent="1" vertex="1">
          <mxGeometry x="305" y="690" width="230" height="30" as="geometry" />
        </mxCell>
        <mxCell id="v_g-XJXEZYM3dwUmOtzK-1" value="&lt;font face=&quot;Times New Roman&quot;&gt;True&lt;/font&gt;" style="text;html=1;align=center;verticalAlign=middle;resizable=0;points=[];autosize=1;strokeColor=none;fillColor=none;" vertex="1" parent="1">
          <mxGeometry x="414" y="990" width="50" height="30" as="geometry" />
        </mxCell>
        <mxCell id="v_g-XJXEZYM3dwUmOtzK-2" value="&lt;font face=&quot;Times New Roman&quot;&gt;False&lt;/font&gt;" style="text;html=1;align=center;verticalAlign=middle;resizable=0;points=[];autosize=1;strokeColor=none;fillColor=none;" vertex="1" parent="1">
          <mxGeometry x="500" y="960" width="50" height="30" as="geometry" />
        </mxCell>
        <mxCell id="v_g-XJXEZYM3dwUmOtzK-3" value="&lt;font face=&quot;Times New Roman&quot;&gt;True&lt;/font&gt;" style="text;html=1;align=center;verticalAlign=middle;resizable=0;points=[];autosize=1;strokeColor=none;fillColor=none;" vertex="1" parent="1">
          <mxGeometry x="414" y="1210" width="50" height="30" as="geometry" />
        </mxCell>
        <mxCell id="v_g-XJXEZYM3dwUmOtzK-4" value="&lt;font face=&quot;Times New Roman&quot;&gt;False&lt;/font&gt;" style="text;html=1;align=center;verticalAlign=middle;resizable=0;points=[];autosize=1;strokeColor=none;fillColor=none;" vertex="1" parent="1">
          <mxGeometry x="490" y="1180" width="50" height="30" as="geometry" />
        </mxCell>
      </root>
    </mxGraphModel>
  </diagram>
</mxfile>
